<?xml version="1.0" encoding="UTF-8"?>
<!-- Created with Inkscape (http://www.inkscape.org/) -->
<svg width="920" height="460" inkscape:version="1.1.1 (3bf5ae0d25, 2021-09-20)" sodipodi:docname="chunks.svg" version="1.1" viewBox="0 0 920 460" xmlns="http://www.w3.org/2000/svg" xmlns:inkscape="http://www.inkscape.org/namespaces/inkscape" xmlns:sodipodi="http://sodipodi.sourceforge.net/DTD/sodipodi-0.dtd"><sodipodi:namedview bordercolor="#999999" borderopacity="1" pagecolor="#ffffff" showgrid="false" units="px"><sodipodi:guide inkscape:color="rgb(0,0,255)" inkscape:label="" inkscape:locked="false" orientation="-1,0" position="460,500"/></sodipodi:namedview><style><![CDATA[
:root {
  --fg-color: rgb(60, 60, 67);
  --bg-color: #ffffff;
}
@media screen and (prefers-color-scheme: dark) {
  :root {
    --fg-color: rgba(255, 255, 245, 0.86);
    --bg-color: #1e1e20;
  }
}
@media print {
  :root {
    --fg-color: #000000;
    --bg-color: #ffffff;
  }
}
.figure {
  fill: var(--fg-color);
  stroke: var(--fg-color);
  stroke-width: 0;
  font-family: 'Chinese Quotes', 'Inter var', 'Inter', ui-sans-serif,
    system-ui, -apple-system, BlinkMacSystemFont, 'Segoe UI', Roboto,
    'Helvetica Neue', Helvetica, Arial, 'Noto Sans', sans-serif,
    'Apple Color Emoji', 'Segoe UI Emoji', 'Segoe UI Symbol',
    'Noto Color Emoji';
  font-size: 16px;
}
.segments {
  stroke-width: 4px;
}
]]></style><g class="figure" inkscape:groupmode="layer" inkscape:label="Layer 1"><g class="segments" transform="translate(51,42)"><rect width="48" height="48" rx="10" ry="10"/><rect x="70" width="48" height="48" rx="10" ry="10"/><rect x="140" width="48" height="48" rx="10" ry="10"/><rect x="210" width="48" height="48" rx="10" ry="10"/><rect x="280" width="48" height="48" rx="10" ry="10"/><rect x="350" width="48" height="48" rx="10" ry="10"/><rect x="420" width="48" height="48" rx="10" ry="10"/><rect x="490" width="48" height="48" rx="10" ry="10"/><rect x="560" width="48" height="48" rx="10" ry="10"/><rect x="630" width="48" height="48" rx="10" ry="10"/><rect x="700" width="48" height="48" rx="10" ry="10"/><rect x="770" width="48" height="48" rx="10" ry="10"/></g><text x="460" y="20" font-size="16px" text-align="center" text-anchor="middle" xml:space="preserve"><tspan x="460" y="20" sodipodi:role="line">1 chunk</tspan></text><g transform="translate(0 240)"><g class="segments" transform="translate(51,42)"><rect width="48" height="48" rx="10" ry="10"/><rect x="70" width="48" height="48" rx="10" ry="10"/><rect x="140" width="48" height="48" rx="10" ry="10"/><g fill="none"><rect x="210" width="48" height="48" rx="10" ry="10"/><rect x="280" width="48" height="48" rx="10" ry="10"/><rect x="350" width="48" height="48" rx="10" ry="10"/></g><rect x="420" width="48" height="48" rx="10" ry="10"/><rect x="490" width="48" height="48" rx="10" ry="10"/><rect x="560" width="48" height="48" rx="10" ry="10"/><g fill="none"><rect x="630" width="48" height="48" rx="10" ry="10"/><rect x="700" width="48" height="48" rx="10" ry="10"/><rect x="770" width="48" height="48" rx="10" ry="10"/></g></g><text x="460" y="20" font-size="16px" text-align="center" text-anchor="middle" xml:space="preserve"><tspan x="460" y="20" sodipodi:role="line">4 chunks</tspan></text></g><g transform="translate(0 360)"><g class="segments" transform="translate(51,42)"><rect width="48" height="48" rx="10" ry="10"/><rect x="70" width="48" height="48" rx="10" ry="10" fill="none"/><rect x="140" width="48" height="48" rx="10" ry="10"/><rect x="210" width="48" height="48" rx="10" ry="10" fill="none"/><rect x="280" width="48" height="48" rx="10" ry="10"/><rect x="350" width="48" height="48" rx="10" ry="10" fill="none"/><rect x="420" width="48" height="48" rx="10" ry="10"/><rect x="490" width="48" height="48" rx="10" ry="10" fill="none"/><rect x="560" width="48" height="48" rx="10" ry="10"/><rect x="630" width="48" height="48" rx="10" ry="10" fill="none"/><rect x="700" width="48" height="48" rx="10" ry="10"/><rect x="770" width="48" height="48" rx="10" ry="10" fill="none"/></g><text x="460" y="20" font-size="16px" text-align="center" text-anchor="middle" xml:space="preserve"><tspan x="460" y="20" sodipodi:role="line">12 chunks / 0 chunks</tspan></text></g><g transform="translate(0,120)"><g class="segments" transform="translate(51,42)"><rect width="48" height="48" rx="10" ry="10"/><rect x="70" width="48" height="48" rx="10" ry="10"/><rect x="140" width="48" height="48" rx="10" ry="10"/><rect x="210" width="48" height="48" rx="10" ry="10"/><g fill="none"><rect x="280" width="48" height="48" rx="10" ry="10"/><rect x="350" width="48" height="48" rx="10" ry="10"/><rect x="420" width="48" height="48" rx="10" ry="10"/><rect x="490" width="48" height="48" rx="10" ry="10"/></g><g><rect x="560" width="48" height="48" rx="10" ry="10"/><rect x="630" width="48" height="48" rx="10" ry="10"/><rect x="700" width="48" height="48" rx="10" ry="10"/><rect x="770" width="48" height="48" rx="10" ry="10"/></g></g><text x="460" y="20" font-size="16px" text-align="center" text-anchor="middle" xml:space="preserve"><tspan x="460" y="20" sodipodi:role="line">3 chunks</tspan></text></g></g></svg>
